<svg version="1.1" id="Calque_1" xmlns="http://www.w3.org/2000/svg" x="0" y="0" viewBox="0 0 512 512" style="enable-background:new 0 0 512 512" xml:space="preserve"><style>.st0{fill:#f6f6f6}</style><path d="M0 0h512v512H0z"/><path class="st0" d="M221.8 139.3h-36.4v14.1l36.4 4.5v152.9L97.2 139.3H43.9v14.1l24.5 3 3.2 4.3v191.4l-29.4 4.2v14.1h83.4v-14.1l-36.5-4.7v-167l138.2 188.1h12.1V157.8l29.3-4.4v-14.1h-29.3zM448.7 305.3 438.6 353H360c-.6-29.2-.6-58.3-.6-82.8v-23.8c0-29.7 0-59.6.6-89.3l32-3.7v-14.1H294.3v14.1l31.8 3.7c.6 29.3.6 59.2.6 89.3v17.4c0 29.3 0 59.2-.6 88.9l-31.8 3.7v14.1h171.9l3.5-65.1h-21z"/></svg>