<?xml version="1.0" encoding="utf-8"?>
<!-- Generator: Adobe Illustrator 27.9.1, SVG Export Plug-In . SVG Version: 6.00 Build 0)  -->
<svg version="1.1" id="Calque_1" xmlns="http://www.w3.org/2000/svg" xmlns:xlink="http://www.w3.org/1999/xlink" x="0px" y="0px" viewBox="0 0 512 512" style="enable-background: new 0 0 512 512" xml:space="preserve">
<style>.st0 {
  fill: #f6f6f6;
}

</style>
<g>
	<polygon class="st0" points="221.8,139.3 185.4,139.3 185.4,153.4 221.8,157.9 221.8,310.8 97.2,139.3 43.9,139.3 43.9,153.4 
		68.4,156.4 71.6,160.7 71.6,352.1 42.2,356.3 42.2,370.4 71.6,370.4 89.1,370.4 125.6,370.4 125.6,356.3 89.1,351.6 89.1,184.6 
		227.3,372.7 239.4,372.7 239.4,334.9 239.4,157.8 268.7,153.4 268.7,139.3 239.4,139.3 	"></polygon>
	<path class="st0" d="M448.7,305.3L438.6,353H360c-0.6-29.2-0.6-58.3-0.6-82.8v-23.8c0-29.7,0-59.6,0.6-89.3l32-3.7v-14.1h-31.6
		h-34.7h-31.4v14.1l31.8,3.7c0.6,29.3,0.6,59.2,0.6,89.3v17.4c0,29.3,0,59.2-0.6,88.9l-31.8,3.7v14.1h31.4h17.3h17.3h105.9l3.5-65.1
		H448.7z"></path>
</g>
</svg>
